:SAMPLES-PER-SECOND 30
:FULLY-SPECIFIED
:DEGREES
768
root  3.76897 34.2622 -18.1539 -176.552 67.2334 175.577
LeftUpLeg  -10.4689 11.2859 -3.21299
LeftLeg  9.11762 5.11808 0.485324
LeftFoot  1.79915 0.0161393 0.218485
LeftToes  -13.0807 7.65994e-007 1.12379e-007
Spine  5.67316 1.52956 -1.20482
Spine1  10.4559 3.12675 -1.89675
RightShoulder  0.102751 2.86574 -9.64466
RightArm  14.4914 10.3611 91.0262
RightForeArm  144.748 50.3007 167.383
RightHand  2.47435 -8.41778 -32.316
LeftShoulder1  0.105081 9.47393 3.01599
LeftArm  -47.7169 -61.217 -41.7961
LeftForeArm  160.355 -52.1311 -166.511
LeftHand  -0.354553 -2.51373 15.7273
HEad  32.5934 -15.9125 -7.20834
RightUpLeg  -15.8475 1.96055 -8.35312
RightLeg  6.93721 20.8353 1.16775
RightFoot  9.5279 -0.270889 3.69246
RightToes  -35.6826 -0.187484 -0.288179
769
root  3.75742 34.2586 -18.1773 -176.556 67.2488 175.577
LeftUpLeg  -10.4858 11.193 -3.24919
LeftLeg  9.17244 5.2135 0.499387
LeftFoot  1.72931 0.0155827 0.214118
LeftToes  -13.0213 7.65994e-007 1.12379e-007
Spine  5.64869 1.5349 -1.23097
Spine1  10.4027 3.14585 -1.95454
RightShoulder  0.103408 2.79747 -9.50055
RightArm  14.5728 10.403 91.0746
RightForeArm  145.115 50.2067 167.424
RightHand  2.44756 -8.25935 -32.5694
LeftShoulder1  0.105446 9.39394 3.01901
LeftArm  -47.1678 -61.3112 -42.5138
LeftForeArm  159.588 -52.6838 -166.24
LeftHand  -0.368052 -2.59384 15.8214
HEad  33.1814 -17.1935 -7.09377
RightUpLeg  -15.8478 1.94079 -8.39225
RightLeg  6.93467 20.8582 1.16808
RightFoot  9.52915 -0.271033 3.6991
RightToes  -35.7131 -0.188228 -0.288059
770
root  3.74803 34.2556 -18.2006 -176.581 67.2029 175.576
LeftUpLeg  -10.5211 11.0579 -3.28532
LeftLeg  9.30275 5.3018 0.519977
LeftFoot  1.64485 0.0148834 0.209728
LeftToes  -12.9612 7.65994e-007 1.12379e-007
Spine  5.62762 1.5367 -1.3028
Spine1  10.3546 3.16169 -2.10377
RightShoulder  0.103774 2.65294 -9.30988
RightArm  14.7148 10.4615 91.0184
RightForeArm  145.783 50.0599 167.487
RightHand  2.40655 -8.02377 -32.9486
LeftShoulder1  0.105993 9.44955 3.12617
LeftArm  -46.3984 -61.6362 -43.2044
LeftForeArm  158.648 -53.9704 -165.581
LeftHand  -0.373477 -2.59743 16.0343
HEad  34.4468 -18.9081 -6.4739
RightUpLeg  -15.8153 1.87373 -8.43359
RightLeg  6.94127 20.8883 1.17206
RightFoot  9.50675 -0.270507 3.69747
RightToes  -35.7373 -0.188886 -0.287886
771
root  3.74166 34.2528 -18.2244 -176.582 67.1414 175.609
LeftUpLeg  -10.575 11.1377 -3.31877
LeftLeg  9.48741 5.18042 0.524899
LeftFoot  1.53107 0.0146674 0.195506
LeftToes  -12.9018 7.65994e-007 1.12379e-007
Spine  5.63465 1.47913 -1.37385
Spine1  10.3638 3.0558 -2.25354
RightShoulder  0.103886 2.54233 -9.03619
RightArm  14.9915 10.5293 90.7527
RightForeArm  146.233 49.9779 167.522
RightHand  2.36966 -7.85439 -33.1358
LeftShoulder1  0.106738 9.49897 3.27688
LeftArm  -46.0173 -61.5825 -43.278
LeftForeArm  158.379 -54.5664 -165.261
LeftHand  -0.400929 -2.67483 16.719
HEad  34.998 -20.2486 -6.05335
RightUpLeg  -15.806 1.82692 -8.46451
RightLeg  7.0406 20.8631 1.20619
RightFoot  9.49385 -0.269418 3.68853
RightToes  -36.0167 -0.189442 -0.287656
772
root  3.73919 34.251 -18.2543 -176.523 67.1298 175.697
LeftUpLeg  -10.5774 11.1799 -3.33661
LeftLeg  9.56363 5.1533 0.529061
LeftFoot  1.44156 0.0139313 0.18697
LeftToes  -12.8259 7.65994e-007 1.12379e-007
Spine  5.63701 1.39864 -1.42138
Spine1  10.364 2.90517 -2.36304
RightShoulder  0.103883 2.47396 -8.77874
RightArm  15.2294 10.5853 90.4968
RightForeArm  146.238 49.8296 167.587
RightHand  2.37979 -7.84871 -33.294
LeftShoulder1  0.107698 9.49033 3.35338
LeftArm  -46.0237 -61.224 -42.9531
LeftForeArm  158.771 -54.4795 -165.308
LeftHand  -0.423664 -2.72154 17.367
HEad  34.7247 -20.9846 -6.04357
RightUpLeg  -15.8255 1.84931 -8.48438
RightLeg  7.17454 20.8331 1.25232
RightFoot  9.44494 -0.267402 3.66592
RightToes  -36.0051 -0.189878 -0.287368
773
root  3.73687 34.2475 -18.2877 -176.457 67.1505 175.798
LeftUpLeg  -10.5731 11.0732 -3.33724
LeftLeg  9.67105 5.25892 0.549835
LeftFoot  1.30988 0.0130215 0.178659
LeftToes  -12.6564 7.65994e-007 1.12379e-007
Spine  5.62988 1.34072 -1.45353
Spine1  10.3453 2.80169 -2.44481
RightShoulder  0.103854 2.41749 -8.55081
RightArm  15.2527 10.5713 90.4099
RightForeArm  146.477 49.7227 167.633
RightHand  2.36142 -7.79702 -33.2583
LeftShoulder1  0.108889 9.46738 3.33379
LeftArm  -45.9508 -61.036 -42.9196
LeftForeArm  158.612 -54.6657 -165.206
LeftHand  -0.454213 -2.84549 17.808
HEad  34.8085 -21.8246 -6.04765
RightUpLeg  -15.85 1.92408 -8.50682
RightLeg  7.31339 20.795 1.29959
RightFoot  9.36699 -0.264619 3.63144
RightToes  -35.8476 -0.190179 -0.287018
